<svg data-v-423bf9ae="" xmlns="http://www.w3.org/2000/svg" viewBox="0 0 342 90" class="iconLeft"><!----><!----><!----><g data-v-423bf9ae="" id="94324b28-18b4-473d-81d9-51f7c18fe865" fill="white" transform="matrix(6.1412484328310715,0,0,6.1412484328310715,104.2272277699438,-1.5199591125577925)"><path d="M0.94 12.29L0.94 2.69L2.97 2.69L2.97 10.53L8.15 10.53L8.15 12.29L0.94 12.29ZM11.94 12.46L11.94 12.46Q10.81 12.46 10.16 11.84L10.16 11.84L10.16 11.84Q9.51 11.23 9.51 9.87L9.51 9.87L9.51 4.93L11.42 4.93L11.42 9.46L11.42 9.46Q11.42 10.15 11.75 10.46L11.75 10.46L11.75 10.46Q12.07 10.77 12.70 10.77L12.70 10.77L12.70 10.77Q13.34 10.77 13.77 10.31L13.77 10.31L13.77 10.31Q14.20 9.86 14.20 9.18L14.20 9.18L14.20 4.93L16.11 4.93L16.11 12.29L14.48 12.29L14.34 11.33L14.24 11.33L14.24 11.33Q13.34 12.46 11.94 12.46L11.94 12.46ZM18.10 12.29L18.10 4.93L19.74 4.93L19.88 5.89L19.98 5.89L19.98 5.89Q20.87 4.76 22.27 4.76L22.27 4.76L22.27 4.76Q23.41 4.76 24.06 5.38L24.06 5.38L24.06 5.38Q24.71 5.99 24.71 7.35L24.71 7.35L24.71 12.29L22.79 12.29L22.79 7.76L22.79 7.76Q22.79 7.07 22.47 6.76L22.47 6.76L22.47 6.76Q22.15 6.45 21.52 6.45L21.52 6.45L21.52 6.45Q20.87 6.45 20.45 6.91L20.45 6.91L20.45 6.91Q20.02 7.36 20.02 8.04L20.02 8.04L20.02 12.29L18.10 12.29ZM28.35 12.46L28.35 12.46Q27.50 12.46 26.78 12.01L26.78 12.01L26.78 12.01Q26.07 11.56 26.07 10.39L26.07 10.39L26.07 10.39Q26.07 8.97 27.23 8.38L27.23 8.38L27.23 8.38Q28.39 7.78 30.52 7.78L30.52 7.78L30.52 7.27L30.52 7.27Q30.52 6.78 30.30 6.51L30.30 6.51L30.30 6.51Q30.09 6.24 29.48 6.24L29.48 6.24L29.48 6.24Q28.84 6.24 28.57 6.44L28.57 6.44L28.57 6.44Q28.29 6.64 28.29 6.90L28.29 6.90L28.29 7.11L26.45 7.11L26.45 7.11Q26.43 7.03 26.43 6.80L26.43 6.80L26.43 6.80Q26.43 5.88 27.25 5.32L27.25 5.32L27.25 5.32Q28.07 4.76 29.43 4.76L29.43 4.76L29.43 4.76Q30.94 4.76 31.69 5.38L31.69 5.38L31.69 5.38Q32.44 5.99 32.44 7.15L32.44 7.15L32.44 10.40L32.44 10.40Q32.44 10.65 32.58 10.77L32.58 10.77L32.58 10.77Q32.72 10.89 32.93 10.89L32.93 10.89L33.32 10.89L33.32 12.24L33.32 12.24Q32.87 12.46 32.21 12.46L32.21 12.46L32.21 12.46Q31.64 12.46 31.25 12.21L31.25 12.21L31.25 12.21Q30.87 11.96 30.73 11.49L30.73 11.49L30.65 11.49L30.65 11.49Q30.24 11.97 29.71 12.21L29.71 12.21L29.71 12.21Q29.19 12.46 28.35 12.46L28.35 12.46ZM28.95 10.95L28.95 10.95Q29.76 10.95 30.14 10.49L30.14 10.49L30.14 10.49Q30.52 10.04 30.52 9.28L30.52 9.28L30.52 9.06L30.52 9.06Q28.01 9.06 28.01 10.18L28.01 10.18L28.01 10.18Q28.01 10.53 28.24 10.74L28.24 10.74L28.24 10.74Q28.48 10.95 28.95 10.95L28.95 10.95ZM34.44 12.29L34.44 4.93L36.08 4.93L36.23 6.12L36.33 6.12L36.33 6.12Q36.57 5.49 36.95 5.12L36.95 5.12L36.95 5.12Q37.32 4.76 37.94 4.76L37.94 4.76L37.94 4.76Q38.21 4.76 38.41 4.81L38.41 4.81L38.41 4.81Q38.61 4.86 38.67 4.89L38.67 4.89L38.67 6.68L38.14 6.68L38.14 6.68Q37.20 6.68 36.78 7.19L36.78 7.19L36.78 7.19Q36.36 7.70 36.36 8.74L36.36 8.74L36.36 12.29L34.44 12.29Z"></path></g><!----><g data-v-423bf9ae="" id="ab4c8fcb-cf1c-4b61-985e-2a7ae243acd5" transform="matrix(2.8125,0,0,2.8125,0,0)" stroke="none" fill="white"><path d="M0 16.024L15.976 32 32 15.976 16.024 0 0 16.024zm15.989 7.323l-7.336-7.336 14.694-.022-7.358 7.358z"></path></g><!----></svg>